<svg xmlns="http://www.w3.org/2000/svg" width="24" height="24" viewBox="0 0 24 24">
  <g fill="none" fill-rule="evenodd">
    <polygon points="0 0 24 0 24 24 0 24"/>
    <path fill="#000" fill-rule="nonzero" d="M10.5,13.5857864 L15.7928932,8.29289322 C16.1834175,7.90236893 16.8165825,7.90236893 17.2071068,8.29289322 C17.5675907,8.65337718 17.5953203,9.22060824 17.2902954,9.61289944 L17.2071068,9.70710678 L11.2071068,15.7071068 C10.8466228,16.0675907 10.2793918,16.0953203 9.88710056,15.7902954 L9.79289322,15.7071068 L7.29289322,13.2071068 C6.90236893,12.8165825 6.90236893,12.1834175 7.29289322,11.7928932 C7.65337718,11.4324093 8.22060824,11.4046797 8.61289944,11.7097046 L8.70710678,11.7928932 L10.5,13.5857864 L15.7928932,8.29289322 L10.5,13.5857864 Z"/>
  </g>
</svg>
